<?xml version="1.0" encoding="utf-8"?>
<!-- Generator: Adobe Illustrator 25.4.1, SVG Export Plug-In . SVG Version: 6.00 Build 0)  -->
<svg version="1.1" id="Layer_1" xmlns="http://www.w3.org/2000/svg" xmlns:xlink="http://www.w3.org/1999/xlink" x="0px" y="0px"
	 viewBox="0 0 800 800" style="enable-background:new 0 0 800 800;" xml:space="preserve">
<style type="text/css">
	.st0{display:none;fill:#2F373D;}
	.st1{fill:#1A6AE1;}
	.st2{display:none;fill:#1A6AE1;}
</style>
<rect x="0" y="0" class="st0" width="800" height="800"/>
<path class="st1" d="M109,586.8l10.5-49.6h15.1l-7.7,36.3h21.4c3.5,0,5.8-2.2,6.7-6.5l6-28.3c0.2-0.8,0.3-1.5,0.3-2.3
	c0-2.8-1.4-4.2-4.3-4.2h-36.4l2.8-13.3h39.3c9.9,0,14.9,4,14.9,12c0,1.8-0.2,3.6-0.6,5.3l-7.1,33.2c-1.2,5.7-3.6,10-7.1,13
	s-8.3,4.5-14.4,4.4L109,586.8L109,586.8z"/>
<path class="st1" d="M185.3,586.8c-2.9,0-4.9-0.5-6.2-1.5c-1.3-1.1-2-2.8-1.9-4.6c0-1.3,0.2-2.6,0.5-3.9l6.5-30.9
	c0.7-3.4,2-5.9,3.7-7.5s4.4-2.4,8.1-2.4h34.3c2.5,0,4.4,0.5,5.5,1.5c1.2,1.1,1.8,2.7,1.6,4.4c0,1.2-0.1,2.5-0.4,3.7l-4.2,20H199
	l1.7-8.4h20.5l1.5-6.8c0.1-0.4,0.1-0.9,0.1-1.3c0-0.4-0.1-0.8-0.4-1.1c-0.5-0.2-1.1-0.3-1.7-0.3h-20.1c-0.8-0.1-1.6,0.1-2.3,0.5
	c-0.5,0.6-0.9,1.4-1,2.3l-4.7,21.9c-0.1,0.3-0.1,0.6-0.1,0.9c0,0.2,0,0.4-0.1,0.7c-0.1,0.5,0.1,0.9,0.5,1.2c0.6,0.2,1.2,0.3,1.8,0.3
	h34.2l-2.4,11.5L185.3,586.8z"/>
<polygon class="st1" points="238.7,586.8 253.9,514.7 268,514.7 252.7,586.8 "/>
<path class="st1" d="M263.8,586.8l10.7-50.8h14l-10.7,50.8H263.8z M275.8,530l3.2-15.3h14.1L290,530H275.8z"/>
<polygon class="st1" points="304.7,586.8 295.7,536 310.9,536 316.7,572.9 339,536 353.4,536 321.6,586.8 "/>
<path class="st1" d="M356.6,586.8c-2.9,0-4.9-0.5-6.2-1.5c-1.3-1.1-2-2.8-1.9-4.6c0-1.3,0.2-2.6,0.5-3.9l6.5-30.9
	c0.7-3.4,2-5.9,3.7-7.5s4.4-2.4,8.1-2.4h34.3c2.5,0,4.4,0.5,5.5,1.5c1.2,1.1,1.8,2.7,1.7,4.4c0,1.2-0.1,2.5-0.4,3.7l-4.2,20h-33.8
	l1.7-8.4h20.5l1.5-6.8c0.1-0.4,0.1-0.9,0.1-1.3c0-0.4-0.1-0.8-0.5-1.1c-0.5-0.2-1.1-0.4-1.7-0.3h-20.2c-0.8-0.1-1.6,0.1-2.3,0.5
	c-0.5,0.6-0.9,1.4-1,2.3l-4.7,21.9c-0.1,0.3-0.1,0.6-0.1,0.9c0,0.2,0,0.4,0,0.7c-0.1,0.5,0.1,0.9,0.5,1.2c0.6,0.2,1.2,0.4,1.8,0.3
	h34.2l-2.4,11.5L356.6,586.8z"/>
<path class="st1" d="M409.7,586.8l10.7-50.8H434l-1.2,5.5c1.1-1.7,2.5-3.2,4.3-4.2c1.7-0.9,3.7-1.4,5.7-1.3h14.8l-2.6,12.1h-20.3
	c-1.6-0.3-3.1,0.8-3.4,2.4l0,0c0,0.1,0,0.3,0,0.4l-7.5,35.8L409.7,586.8z"/>
<polygon class="st1" points="513.1,586.8 521.8,545.5 496.6,586.8 484.7,586.8 476.6,545.5 467.9,586.8 455.2,586.8 469.5,518.8 
	486,518.8 494.9,566.1 524.2,518.8 540,518.8 525.7,586.8 "/>
<path class="st1" d="M545,586.8c-2.5,0-4.4-0.5-5.5-1.5c-1.2-1.1-1.8-2.7-1.7-4.4c0-1.3,0.2-2.5,0.5-3.7l2.5-12
	c0.3-1.6,0.8-3.2,1.4-4.7c0.4-1.1,1.1-2.2,2-3c0.8-0.7,1.8-1.3,2.9-1.5c1.3-0.3,2.7-0.5,4.1-0.5H577l-1.8,8.6h-18.4
	c-0.7-0.1-1.4,0.1-2,0.5c-0.5,0.6-0.8,1.3-0.9,2.1l-1.1,5.3c-0.1,0.3-0.1,0.6-0.2,0.8c0,0.2,0,0.4,0,0.6c0,0.9,0.6,1.3,1.9,1.3H578
	l5.3-24.9c0.1-0.4,0.1-0.7,0.1-1.1c0-0.5-0.2-0.9-0.5-1.2c-0.6-0.4-1.2-0.6-1.9-0.6h-34.5l2.3-11h41.6c2.9,0,5,0.5,6.2,1.5
	c1.3,1.2,2,2.8,1.8,4.6c0,1.3-0.2,2.6-0.5,3.9l-8.6,40.9L545,586.8L545,586.8z"/>
<path class="st1" d="M609.1,586.8c-2.8,0-4.8-0.5-6.1-1.5c-1.3-1.1-2-2.8-1.8-4.6c0-1.3,0.2-2.6,0.5-3.9l11.6-55h14.1l-3,14.2h12.2
	l-2.3,11H622l-5.5,26c-0.1,0.4-0.2,0.9-0.2,1.3c0,0.9,0.7,1.4,2.2,1.4h9.2l-2.3,11L609.1,586.8z"/>
<path class="st1" d="M642.8,586.8c-2.9,0-4.9-0.5-6.2-1.5c-1.3-1.1-2-2.8-1.9-4.6c0.1-1.3,0.2-2.6,0.5-3.9l6.5-30.9
	c0.7-3.4,2-5.9,3.7-7.5s4.4-2.4,8.1-2.4h34.3c2.5,0,4.4,0.5,5.5,1.5c1.2,1.1,1.8,2.7,1.7,4.4c0,1.2-0.1,2.5-0.4,3.7l-4.2,20h-33.8
	l1.7-8.4h20.5l1.5-6.8c0.1-0.4,0.1-0.9,0.1-1.3c0-0.4-0.1-0.8-0.5-1.1c-0.5-0.2-1.1-0.3-1.7-0.3H658c-0.8-0.1-1.6,0.1-2.3,0.5
	c-0.5,0.6-0.9,1.4-1,2.3l-4.8,21.9c-0.1,0.3-0.1,0.6-0.2,0.9s0,0.4,0,0.7c-0.1,0.5,0.1,0.9,0.5,1.2c0.6,0.2,1.2,0.3,1.8,0.3h34.2
	l-2.4,11.5h-41V586.8z"/>
<path class="st2" d="M625.3,619.1l-0.3-4.2h-9.8l-2.1,4.2h-5.9l14.1-27.1h8l2.1,27.1H625.3z M623.9,597.5l-6.6,12.9h7.4L623.9,597.5
	z"/>
<path class="st2" d="M641.7,619.1l1-4.8h6.7c0.3,0,0.6,0,0.9-0.2c0.2-0.3,0.4-0.6,0.4-0.9l1.8-8.2c0-0.2,0-0.3,0-0.5s0-0.4-0.2-0.5
	s-0.4-0.2-0.7-0.1H643l-5.1,23.7h-5.6l6.1-28.7h17.1c0.9-0.1,1.7,0.1,2.5,0.6c0.5,0.5,0.8,1.1,0.7,1.8c0,0.5-0.1,1-0.2,1.5
	l-2.6,12.3c-0.2,1.2-0.7,2.2-1.6,3c-0.9,0.7-2,1-3.1,0.9L641.7,619.1z"/>
<path class="st2" d="M666.7,619.1l1-4.8h6.7c0.3,0,0.6,0,0.9-0.2c0.2-0.2,0.4-0.6,0.4-0.9l1.8-8.2c0-0.2,0-0.3,0-0.5s0-0.4-0.2-0.5
	s-0.4-0.2-0.7-0.1h-8.7l-5.1,23.7h-5.6l6.1-28.7h17.1c0.9-0.1,1.7,0.1,2.5,0.6c0.5,0.5,0.8,1.1,0.7,1.8c0,0.5-0.1,1-0.2,1.5
	l-2.6,12.3c-0.2,1.2-0.7,2.2-1.6,3c-0.9,0.7-2,1-3.1,0.9L666.7,619.1z"/>
<path class="st1" d="M355.9,110.9l-15.5,56.3H137.2c-7.2,0-13,5.8-13,13s5.8,13,13,13h293.6v-0.1h40.6c7.2,0,13,6.4,13,14.2
	s-5.8,14.2-13,14.2h-227c-7.2,0-13,5.8-13,13s5.8,13,13,13H385c6.7,0.6,12,6.6,12,14c0,7.4-5.3,13.4-12,14v0.5H204.6
	c-7.2,0-13,5.8-13,13s5.8,13,13,13h174.6l0,0h40.6c7.2,0,13,6.9,13,15.5s-5.8,15.5-13,15.5H271.5l-11.6,46.6h297.8l95.4-268.7
	C653.1,110.9,355.9,110.9,355.9,110.9z"/>
<path class="st1" d="M414.9,392c-5-2.7-11.2-0.9-13.9,4l-45.4,81l-48-30.5c-3.9-2.5-8.9-2.1-12.4,1l-34.5,31
	c-4.2,3.8-4.6,10.3-0.8,14.5c3.8,4.2,10.3,4.6,14.5,0.8l0,0l0,0L303,468l50.6,32.1c4.8,3,11.1,1.6,14.2-3.2l0.3-0.5l50.7-90.4
	C421.7,401.1,419.9,394.8,414.9,392C415,392,415,392,414.9,392L414.9,392"/>
<path class="st1" d="M539.3,446.8L505.7,466l-14.3-67.1c-1-5.6-6.4-9.3-12-8.3s-9.3,6.4-8.3,12c0,0.2,0.1,0.4,0.1,0.6l17.2,80.8
	c1.2,5.5,6.6,9.1,12.2,7.9c1-0.2,2-0.6,3-1.1l45.8-26.1c4.8-3,6.4-9.3,3.4-14.1C550.1,445.8,544.1,444.2,539.3,446.8"/>
<path class="st1" d="M679.8,284.5c-0.5-5.6-5.5-9.8-11.1-9.3L522.2,288l13.9-32.6c5.6-0.2,10.2-2.8,11.6-7.1
	c2.1-6.2-3.3-13.6-12-16.5s-17.5-0.3-19.5,5.9c-0.9,3-0.4,6.2,1.4,8.7l-21,49.3c-2.2,5.2,0.2,11.2,5.4,13.5l0,0
	c1.3,0.5,2.7,0.8,4.1,0.8c0.3,0,0.6,0,0.9,0l163.6-14.3C676.1,295.2,680.3,290.2,679.8,284.5"/>
<path class="st1" d="M481.3,647.4l4.7-22.6h6.8l-1,4.9h9.5c0.5,0,1-0.1,1.4-0.3c0.3-0.3,0.5-0.7,0.6-1.1l0.8-3.7
	c0.1-0.3,0.1-0.5,0.1-0.8s-0.1-0.6-0.3-0.7c-0.3-0.2-0.7-0.2-1.1-0.2h-16.3l1.2-5.9h19.4c1.2-0.1,2.4,0.2,3.4,0.8
	c0.7,0.6,1.1,1.6,1,2.5c0,0.3,0,0.6-0.1,0.9c0,0.3-0.1,0.6-0.2,0.9l-1.2,5.7c-0.2,1.1-0.7,2-1.4,2.8c-0.7,0.6-1.7,1-2.6,1.1
	c0.8,0.1,1.5,0.3,2.1,0.7s0.9,1.1,0.8,1.8c0,0.1,0,0.3,0,0.5s0,0.3-0.1,0.5l-1.5,7.2c-0.2,1.5-0.9,2.8-2,3.9
	c-1.2,0.9-2.8,1.4-4.3,1.3h-19.7L481.3,647.4L481.3,647.4z M502,635.6c0-0.2,0-0.3,0.1-0.4s0-0.2,0-0.3c0-0.3-0.1-0.6-0.4-0.8
	c-0.4-0.1-0.7-0.2-1.1-0.2H491l-1.6,7.4h9.6c0.5,0,1-0.1,1.5-0.3c0.4-0.4,0.6-0.9,0.6-1.4L502,635.6z"/>
<path class="st1" d="M529,647.4l0.5-2.4c-0.5,0.8-1.1,1.4-1.9,1.9c-0.8,0.4-1.6,0.6-2.5,0.6h-9.9c-0.9,0.1-1.9-0.2-2.7-0.6
	c-0.6-0.5-1-1.3-0.9-2.1c0-0.6,0.1-1.1,0.2-1.7l3.9-18.3h6.3l-3.4,16.1c0,0.2-0.1,0.4-0.1,0.6c0,0.5,0.4,0.7,1.1,0.7h9
	c0.4,0,0.7-0.1,1-0.3c0.3-0.3,0.4-0.6,0.5-1l3.4-16.1h6.3l-4.8,22.8L529,647.4z"/>
<path class="st1" d="M539.8,647.4l1.1-5.2h15.6c0.3,0,0.7,0,1-0.2c0.2-0.2,0.3-0.5,0.4-0.9l0.5-2.2c0-0.1,0-0.2,0-0.4
	c0-0.4-0.3-0.6-0.9-0.6h-12.2c-0.8,0.1-1.6-0.1-2.2-0.6c-0.5-0.4-0.7-1-0.7-1.6c0-0.3,0.1-0.7,0.1-1l1.3-6.1c0.2-1.1,0.7-2.2,1.5-3
	c1-0.7,2.3-1.1,3.5-1h18.8l-1.1,5.1H551c-0.4,0-0.7,0.1-1,0.3c-0.2,0.3-0.4,0.6-0.5,0.9l-0.4,1.9c0,0.1,0,0.3,0,0.4
	c0,0.5,0.3,0.7,0.9,0.7h12.3c0.8-0.1,1.6,0.2,2.3,0.6c0.5,0.4,0.7,1,0.7,1.7c0,0.2,0,0.3,0,0.5s0,0.3-0.1,0.5l-1.3,6.3
	c-0.2,2.4-2.3,4.2-4.8,4c-0.1,0-0.2,0-0.3,0L539.8,647.4z"/>
<path class="st1" d="M567.9,647.4l4.8-22.8h6.3l-4.8,22.8H567.9z M573.3,621.9l1.4-6.8h6.3l-1.4,6.8H573.3z"/>
<path class="st1" d="M597.3,647.4l3.4-16.1c0-0.2,0.1-0.4,0.1-0.5c0-0.5-0.4-0.7-1.1-0.7h-9.4c-0.4,0-0.7,0.1-1,0.2
	c-0.3,0.3-0.4,0.6-0.5,1l-3.4,16.1H579l4.8-22.8h6.1l-0.5,2.5c0.9-1.6,2.6-2.5,4.5-2.5h10.2c0.9-0.1,1.9,0.1,2.7,0.6
	c0.6,0.5,0.9,1.3,0.8,2.1c0,0.6-0.1,1.1-0.2,1.7l-3.9,18.3L597.3,647.4z"/>
<path class="st1" d="M612.3,647.4c-1,0.1-1.9-0.1-2.8-0.7c-0.6-0.5-0.9-1.3-0.8-2c0-0.6,0.1-1.2,0.2-1.8l2.9-13.9
	c0.2-1.3,0.8-2.4,1.6-3.4c1-0.8,2.3-1.2,3.6-1.1h15.4c0.9-0.1,1.7,0.2,2.5,0.7c0.5,0.5,0.8,1.3,0.7,2c0,0.6-0.1,1.1-0.2,1.7l-1.9,9
	h-15.2l0.8-3.8h9.2l0.6-3.1c0-0.2,0.1-0.4,0-0.6c0-0.2-0.1-0.4-0.2-0.5c-0.2-0.1-0.5-0.2-0.7-0.1h-9c-0.4,0-0.7,0.1-1,0.2
	c-0.2,0.3-0.4,0.6-0.5,1l-2.1,9.8c0,0.2,0,0.3-0.1,0.4s0,0.2,0,0.3c0,0.2,0.1,0.4,0.2,0.5c0.3,0.1,0.5,0.2,0.8,0.1h15.3l-1.1,5.2
	L612.3,647.4z"/>
<path class="st1" d="M636.1,647.4l1.1-5.2h15.6c0.3,0,0.7,0,1-0.2c0.2-0.2,0.3-0.5,0.4-0.9l0.5-2.2c0-0.1,0-0.2,0-0.4
	c0-0.4-0.3-0.6-0.9-0.6h-12.2c-0.8,0.1-1.6-0.1-2.2-0.6c-0.5-0.4-0.7-1-0.7-1.6c0-0.3,0.1-0.7,0.1-1l1.3-6.1c0.2-1.1,0.7-2.2,1.5-3
	c1-0.7,2.3-1.1,3.5-1h18.8l-1.1,5.1h-15.5c-0.4,0-0.7,0.1-1,0.3c-0.2,0.3-0.4,0.6-0.5,0.9l-0.4,1.9c0,0.1,0,0.3,0,0.4
	c0,0.5,0.3,0.7,1,0.7h12.3c0.8-0.1,1.6,0.2,2.3,0.6c0.5,0.4,0.7,1,0.7,1.7c0,0.1,0,0.3,0,0.5s0,0.3-0.1,0.5l-1.4,6.3
	c-0.2,2.4-2.3,4.2-4.8,4c-0.1,0-0.2,0-0.3,0L636.1,647.4z"/>
<path class="st1" d="M664,647.4l1.1-5.2h15.6c0.3,0,0.7,0,1-0.2c0.2-0.2,0.3-0.5,0.4-0.9l0.5-2.2c0-0.1,0-0.2,0-0.4
	c0-0.4-0.3-0.6-0.9-0.6h-12.2c-0.8,0.1-1.6-0.1-2.2-0.6c-0.5-0.4-0.7-1-0.7-1.6c0-0.3,0-0.7,0.1-1l1.3-6.1c0.2-1.1,0.7-2.2,1.5-3
	c1-0.7,2.3-1.1,3.5-1h18.8l-1.1,5.1h-15.5c-0.4,0-0.7,0.1-1,0.3c-0.2,0.3-0.4,0.6-0.5,0.9l-0.4,1.9c0,0.1,0,0.3,0,0.4
	c0,0.5,0.3,0.7,1,0.7h12.2c0.8-0.1,1.6,0.2,2.3,0.6c0.5,0.4,0.7,1,0.7,1.7c0,0.2,0,0.3,0,0.5s0,0.3-0.1,0.5l-1.3,6.3
	c-0.2,2.4-2.4,4.2-4.8,4c-0.1,0-0.2,0-0.3,0L664,647.4z"/>
</svg>
